Coordinates
version=1
nRows=38
nColumns=38
inDegrees=no

Units are S.I. units (second, meters, Newtons, ...)
If the header above contains a line with 'inDegrees', this indicates whether rotational values are in degrees (yes) or radians (no).

endheader
time	pelvis_tilt	pelvis_list	pelvis_rotation	pelvis_tx	pelvis_ty	pelvis_tz	hip_flexion_r	hip_adduction_r	hip_rotation_r	knee_angle_r	ankle_angle_r	subtalar_angle_r	mtp_angle_r	hip_flexion_l	hip_adduction_l	hip_rotation_l	knee_angle_l	ankle_angle_l	subtalar_angle_l	mtp_angle_l	lumbar_extension	lumbar_bending	lumbar_rotation	arm_flex_r	arm_add_r	arm_rot_r	elbow_flex_r	pro_sup_r	wrist_flex_r	wrist_dev_r	arm_flex_l	arm_add_l	arm_rot_l	elbow_flex_l	pro_sup_l	wrist_flex_l	wrist_dev_l
0	-0.740528	1.36581	2.36437	0.934938	-0.855212	0.992312	0.739293	-0.126091	0.232822	1.09275	-0.0791348	0	0	0.163428	-0.0177037	-0.278392	0.930636	-0.199094	0	0	-0.106536	-0.177991	0.194301	0.135643	-0.363194	1.01785	0.489711	0.636263	0	0	0.180951	-0.374182	0.872778	0.487233	0.810332	0	0
0.01	-0.720975	1.36025	2.34717	0.935251	-0.84799	0.993849	0.733165	-0.129049	0.227202	1.08449	-0.0770373	0	0	0.196503	-0.0223519	-0.266092	0.978588	-0.230516	0	0	-0.100572	-0.17008	0.177574	0.156353	-0.366332	1.07503	0.488948	0.596153	0	0	0.206823	-0.362889	0.985399	0.433378	0.709487	0	0
0.02	-0.74329	1.35779	2.37271	0.93566	-0.84087	0.995607	0.721909	-0.139154	0.217572	1.08325	-0.0735613	0	0	0.218635	-0.0199647	-0.255045	1.01884	-0.252005	0	0	-0.0991697	-0.174101	0.178909	0.156741	-0.366462	1.07742	0.490591	0.591015	0	0	0.211377	-0.364607	0.988118	0.435061	0.708418	0	0
0.03	-1.31837	1.27362	2.80711	0.954853	-0.844998	0.990124	0.759072	-0.17696	0.411233	1.21806	-0.0548248	0	0	0.131336	0.105591	-0.411915	1.01045	-0.285313	0	0	-0.11027	-0.331655	0.312344	0.239182	-0.41098	1.36076	0.5715	0.317232	0	0	0.322055	-0.444731	1.37732	0.529304	0.387273	0	0
0.04	-0.75348	1.34889	2.38731	0.93532	-0.826005	0.99816	0.705443	-0.158595	0.196222	1.07653	-0.0681467	0	0	0.269211	-0.0116969	-0.229559	1.09366	-0.298813	0	0	-0.10965	-0.184137	0.173614	0.149761	-0.36585	1.02245	0.49987	0.645675	0	0	0.202111	-0.358715	0.893464	0.438492	0.809849	0	0
0.05	-0.761602	1.34478	2.39692	0.93504	-0.818511	0.999252	0.697239	-0.168334	0.185901	1.07452	-0.065434	0	0	0.292089	-0.00701807	-0.221337	1.12669	-0.308784	0	0	-0.110689	-0.188163	0.173916	0.146793	-0.366609	1.00757	0.503475	0.659715	0	0	0.201917	-0.357894	0.877102	0.440404	0.827948	0	0
0.06	-0.773049	1.34007	2.41028	0.934799	-0.810977	0.999831	0.695221	-0.177402	0.17835	1.0874	-0.061092	0	0	0.314154	-0.0013174	-0.215172	1.1583	-0.308815	0	0	-0.107051	-0.192575	0.172571	0.150529	-0.368508	1.02744	0.505219	0.637772	0	0	0.203856	-0.36218	0.892648	0.443835	0.810266	0	0
0.07	-0.77988	1.33749	2.41761	0.934334	-0.803794	1.00114	0.680099	-0.18677	0.166404	1.07194	-0.0582278	0	0	0.334721	0.00377642	-0.208894	1.18504	-0.303368	0	0	-0.108151	-0.194593	0.171722	0.155212	-0.370712	1.04056	0.50597	0.624758	0	0	0.206064	-0.362546	0.896928	0.44447	0.802649	0	0
0.08	-1.32739	1.24895	2.81287	0.953758	-0.809275	0.995177	0.723708	-0.231285	0.382559	1.20571	-0.034216	0	0	0.241865	0.116938	-0.393412	1.1639	-0.293533	0	0	-0.109006	-0.34867	0.286617	0.297239	-0.409284	1.49417	0.577858	0.224793	0	0	0.28319	-0.450266	1.24372	0.531753	0.47401	0	0
0.09	-0.820318	1.33547	2.45714	0.933625	-0.789752	1.00328	0.655408	-0.203281	0.15046	1.07107	-0.0477205	0	0	0.366198	0.0146211	-0.205055	1.22591	-0.279344	0	0	-0.110199	-0.199172	0.160679	0.186835	-0.376343	1.14484	0.505527	0.531385	0	0	0.198062	-0.366242	0.877244	0.450155	0.805739	0	0
0.1	-0.802587	1.32601	2.44165	0.933236	-0.782429	1.00299	0.660817	-0.21143	0.144556	1.07991	-0.045124	0	0	0.398058	0.0212299	-0.202345	1.24293	-0.274119	0	0	-0.102301	-0.204008	0.16236	0.181967	-0.375373	1.1316	0.506883	0.537954	0	0	0.201615	-0.369393	0.890649	0.452598	0.792736	0	0
0.11	-1.32412	1.2372	2.80392	0.953446	-0.789094	0.99699	0.711211	-0.255611	0.369255	1.20947	-0.023439	0	0	0.308197	0.120975	-0.399854	1.20942	-0.262281	0	0	-0.110172	-0.359248	0.288064	0.310743	-0.411625	1.50579	0.583615	0.214562	0	0	0.279436	-0.449535	1.1985	0.532886	0.508224	0	0
0.12	-0.785764	1.31462	2.42343	0.932439	-0.769312	1.00347	0.653711	-0.223466	0.132577	1.07162	-0.039892	0	0	0.450143	0.0331708	-0.199307	1.25905	-0.253028	0	0	-0.102711	-0.210762	0.165739	0.174767	-0.375071	1.07638	0.512499	0.587824	0	0	0.198363	-0.362496	0.822154	0.455903	0.86481	0	0
0.13	-0.780106	1.309	2.41733	0.932069	-0.762878	1.00349	0.652646	-0.229524	0.127024	1.0721	-0.038644	0	0	0.474702	0.0375262	-0.201716	1.26058	-0.243781	0	0	-0.100718	-0.214245	0.168356	0.173651	-0.375029	1.06549	0.513905	0.59531	0	0	0.201862	-0.361209	0.816762	0.455579	0.87337	0	0
0.14	-0.778468	1.30477	2.41541	0.931661	-0.756416	1.00369	0.649267	-0.234684	0.123392	1.07202	-0.037745	0	0	0.496014	0.0411669	-0.204847	1.25681	-0.236667	0	0	-0.101376	-0.217811	0.171823	0.172287	-0.375341	1.05414	0.515829	0.602269	0	0	0.207156	-0.359717	0.81371	0.45503	0.881003	0	0
0.15	-0.774449	1.30033	2.41145	0.931283	-0.749918	1.00369	0.646018	-0.237522	0.124067	1.07165	-0.0353334	0	0	0.517164	0.0442244	-0.207959	1.2492	-0.229096	0	0	-0.102464	-0.221586	0.176414	0.167082	-0.374837	1.02837	0.518501	0.6228	0	0	0.212757	-0.356889	0.804034	0.453922	0.89746	0	0
0.16	-0.771161	1.29746	2.40822	0.930855	-0.743579	1.00386	0.642491	-0.242384	0.11816	1.0722	-0.0351977	0	0	0.53656	0.0459829	-0.211289	1.23782	-0.223768	0	0	-0.102602	-0.223413	0.177252	0.172298	-0.374927	1.0396	0.517184	0.609306	0	0	0.21824	-0.356537	0.810335	0.452432	0.890289	0	0
0.17	-0.766369	1.29436	2.40381	0.930332	-0.737288	1.0039	0.638989	-0.245856	0.115056	1.07246	-0.0340838	0	0	0.555867	0.0477995	-0.214584	1.22283	-0.217756	0	0	-0.102475	-0.225265	0.178513	0.176324	-0.374896	1.04744	0.515979	0.600424	0	0	0.223996	-0.355935	0.81512	0.45104	0.886432	0	0
0.18	-0.7644	1.29134	2.40266	0.929824	-0.730757	1.00372	0.639462	-0.249789	0.111815	1.08287	-0.0329984	0	0	0.573059	0.0497331	-0.21841	1.20464	-0.212045	0	0	-0.101629	-0.227698	0.179842	0.179205	-0.374523	1.05451	0.515194	0.591069	0	0	0.229473	-0.356249	0.821014	0.450259	0.883525	0	0
0.19	-1.27141	1.21416	2.74985	0.949247	-0.737911	0.998312	0.690089	-0.301759	0.341557	1.21046	-0.0108177	0	0	0.470783	0.116241	-0.436098	1.14313	-0.202105	0	0	-0.110014	-0.374843	0.275064	0.358485	-0.399525	1.5708	0.575685	0.153609	0	0	0.280546	-0.437448	1.09905	0.515437	0.590357	0	0
0.2	-0.763618	1.28804	2.4035	0.927989	-0.718154	1.00419	0.622845	-0.258495	0.101501	1.07301	-0.0284236	0	0	0.601805	0.0562476	-0.221047	1.15608	-0.206662	0	0	-0.0961795	-0.223985	0.155873	0.228904	-0.372106	1.20761	0.501536	0.458532	0	0	0.221588	-0.360039	0.819745	0.445749	0.85902	0	0
0.21	-0.765247	1.28697	2.40499	0.927114	-0.711771	1.00443	0.616072	-0.262075	0.0977356	1.07252	-0.0275823	0	0	0.613468	0.0586638	-0.223414	1.12783	-0.205251	0	0	-0.0988294	-0.224772	0.156262	0.231998	-0.372773	1.20864	0.502229	0.457921	0	0	0.226565	-0.358587	0.819815	0.444074	0.860259	0	0
0.22	-1.26766	1.20869	2.74868	0.946073	-0.718634	0.998862	0.674479	-0.321862	0.327336	1.21109	-0.00574948	0	0	0.509046	0.120215	-0.444314	1.05901	-0.198489	0	0	-0.115082	-0.380434	0.280387	0.360857	-0.403711	1.5708	0.578861	0.146257	0	0	0.305383	-0.429073	1.12816	0.50271	0.577405	0	0
0.23	-0.772987	1.28558	2.41163	0.92526	-0.699	1.00515	0.600918	-0.268926	0.0906949	1.07005	-0.0260026	0	0	0.63152	0.0646802	-0.226888	1.06366	-0.204888	0	0	-0.111465	-0.229175	0.168173	0.214349	-0.377203	1.12262	0.513063	0.529028	0	0	0.245697	-0.351719	0.819593	0.439965	0.879307	0	0
0.24	-0.773152	1.28372	2.41349	0.923898	-0.692376	1.00523	0.59407	-0.274426	0.0837102	1.06886	-0.0246638	0	0	0.641029	0.0701552	-0.225522	1.02976	-0.205613	0	0	-0.113742	-0.230766	0.168006	0.21226	-0.377975	1.1083	0.515628	0.539782	0	0	0.25012	-0.350943	0.817869	0.439568	0.885786	0	0
0.25	-0.776449	1.282	2.41835	0.922459	-0.685685	1.00516	0.586667	-0.280525	0.0769821	1.06851	-0.0224642	0	0	0.648728	0.0761664	-0.224577	0.994721	-0.205006	0	0	-0.10891	-0.230415	0.155052	0.240455	-0.376935	1.20775	0.508896	0.449	0	0	0.245379	-0.357157	0.82964	0.44079	0.858547	0	0
0.26	-0.773687	1.27868	2.41702	0.92103	-0.678773	1.00511	0.580783	-0.28587	0.0717023	1.06603	-0.0208262	0	0	0.65674	0.0827112	-0.222328	0.955786	-0.205314	0	0	-0.117827	-0.235677	0.167494	0.205556	-0.378063	1.0707	0.520767	0.57019	0	0	0.25637	-0.349952	0.806105	0.441108	0.903673	0	0
0.27	-0.777712	1.27681	2.42259	0.919509	-0.67208	1.00495	0.572911	-0.292289	0.0657758	1.06568	-0.0178449	0	0	0.661601	0.0901438	-0.218292	0.916169	-0.206204	0	0	-0.11455	-0.236367	0.157959	0.226348	-0.377778	1.14191	0.515569	0.50091	0	0	0.25558	-0.356412	0.827993	0.442902	0.868571	0	0
0.28	-0.779199	1.27476	2.42595	0.918025	-0.665215	1.00465	0.564978	-0.298144	0.0601206	1.06513	-0.0144671	0	0	0.666055	0.0971342	-0.212816	0.875704	-0.209873	0	0	-0.115354	-0.238637	0.155586	0.226815	-0.377117	1.13826	0.51624	0.503184	0	0	0.25749	-0.358137	0.827762	0.444844	0.869495	0	0
0.29	-0.777342	1.27251	2.42474	0.91638	-0.658357	1.00437	0.558266	-0.302651	0.0562217	1.06389	-0.0123414	0	0	0.670479	0.103656	-0.206094	0.833475	-0.213423	0	0	-0.117071	-0.240717	0.156462	0.222043	-0.377401	1.11485	0.518851	0.524218	0	0	0.26073	-0.357651	0.824491	0.445748	0.877515	0	0
0.3	-0.77393	1.27026	2.42217	0.91473	-0.651369	1.00379	0.552447	-0.306577	0.0531093	1.06479	-0.00813681	0	0	0.674278	0.110314	-0.196169	0.789284	-0.224048	0	0	-0.114783	-0.241658	0.153104	0.227285	-0.376809	1.13097	0.517761	0.509886	0	0	0.259961	-0.360008	0.826005	0.447697	0.872392	0	0
0.31	-0.767674	1.26799	2.41617	0.913093	-0.644352	1.00304	0.54713	-0.309514	0.0499723	1.06536	-0.00434299	0	0	0.678185	0.115538	-0.185888	0.745405	-0.229721	0	0	-0.112634	-0.242533	0.15295	0.22662	-0.376564	1.12632	0.51845	0.513885	0	0	0.2607	-0.36087	0.825604	0.449124	0.87488	0	0
0.32	-0.760164	1.26574	2.4086	0.911383	-0.637333	1.00215	0.542019	-0.312342	0.0463537	1.06606	3.17877e-05	0	0	0.681448	0.120442	-0.173664	0.700772	-0.233075	0	0	-0.109953	-0.243066	0.153309	0.225343	-0.376665	1.12008	0.519474	0.520554	0	0	0.26124	-0.36134	0.824639	0.450412	0.878352	0	0
0.33	-0.751486	1.26353	2.39943	0.909638	-0.63018	1.00117	0.536954	-0.314865	0.0426376	1.06626	0.0041503	0	0	0.68387	0.124142	-0.160886	0.656845	-0.233811	0	0	-0.106793	-0.243384	0.154525	0.222913	-0.376966	1.11117	0.52079	0.528771	0	0	0.261285	-0.361518	0.822375	0.45156	0.881539	0	0
0.34	-0.742487	1.26177	2.38964	0.90786	-0.622923	1.00005	0.531578	-0.316795	0.0389247	1.06651	0.00797667	0	0	0.68564	0.1263	-0.148953	0.614802	-0.231502	0	0	-0.101048	-0.242461	0.152739	0.229361	-0.377274	1.13708	0.519375	0.504191	0	0	0.258866	-0.363594	0.826321	0.452723	0.871948	0	0
0.35	-0.731905	1.26004	2.37807	0.906013	-0.615506	0.998823	0.526212	-0.31838	0.0347387	1.06644	0.0120385	0	0	0.6869	0.127719	-0.136466	0.572902	-0.228103	0	0	-0.0962818	-0.241546	0.153356	0.229224	-0.377908	1.13922	0.520165	0.502345	0	0	0.257016	-0.36386	0.824343	0.453645	0.8701	0	0
0.36	-0.719746	1.25822	2.36429	0.904154	-0.607869	0.997543	0.520976	-0.31946	0.0310167	1.06575	0.0162495	0	0	0.687699	0.128087	-0.124597	0.531496	-0.222702	0	0	-0.0962743	-0.24205	0.162288	0.20807	-0.378768	1.06377	0.527581	0.57383	0	0	0.2591	-0.358757	0.804802	0.454121	0.899833	0	0
0.37	-0.712306	1.25767	2.35492	0.902269	-0.600256	0.996168	0.514291	-0.320912	0.0272507	1.06652	0.0214673	0	0	0.686835	0.127482	-0.114947	0.493674	-0.2129	0	0	-0.0878274	-0.239882	0.159836	0.220977	-0.38013	1.11913	0.524308	0.521019	0	0	0.257402	-0.363358	0.830871	0.454122	0.864942	0	0
